<svg width="18" height="10" viewBox="0 0 18 10" fill="none" xmlns="http://www.w3.org/2000/svg">
<path d="M0.5024 0.844159C0.753035 0.623794 1.09292 0.5 1.44732 0.5C1.80172 0.5 2.14161 0.623794 2.39224 0.844159L9.00804 6.66269L15.6238 0.844159C15.8759 0.630039 16.2135 0.511559 16.5639 0.514237C16.9144 0.516916 17.2496 0.640538 17.4974 0.858478C17.7452 1.07642 17.8858 1.37124 17.8888 1.67944C17.8918 1.98764 17.7571 2.28457 17.5137 2.50626L9.95296 9.15584C9.70233 9.37621 9.36244 9.5 9.00804 9.5C8.65364 9.5 8.31375 9.37621 8.06312 9.15584L0.5024 2.50626C0.251841 2.28583 0.111084 1.9869 0.111084 1.67521C0.111084 1.36352 0.251841 1.06459 0.5024 0.844159Z" fill="#475D5B"/>
</svg>
